<svg version="1.1" xmlns="http://www.w3.org/2000/svg" xmlns:xlink="http://www.w3.org/1999/xlink" width="62" height="42"><defs/><g><path fill="rgb(0,0,0)" stroke="none" paint-order="stroke fill markers" fill-rule="evenodd" d=" M 53.95826065540314 1.9998003244400024 C 53.95826065540314 1.9998003244400024 8.041645646095276 1.9998003244400024 8.041645646095276 1.9998003244400024 C 4.711488485336304 1.9998003244400024 1.9999600648880005 4.664719820022583 1.9999600648880005 7.937417149543762 C 1.9999600648880005 7.937417149543762 1.9999600648880005 34.062610387802124 1.9999600648880005 34.062610387802124 C 1.9999600648880005 37.3353077173233 4.711488485336304 40.0001038312912 8.041645646095276 40.0001038312912 C 8.041645646095276 40.0001038312912 53.958179235458374 40.0001038312912 53.958179235458374 40.0001038312912 C 57.28825497627258 40.0001038312912 59.999783396720886 37.3353077173233 59.999783396720886 34.062610387802124 C 59.999783396720886 34.062610387802124 59.999783396720886 7.937417149543762 59.999783396720886 7.937417149543762 C 59.99986481666565 4.664719820022583 57.28841781616211 1.9998003244400024 53.95826065540314 1.9998003244400024 Z M 57.5832394361496 34.06248700618744 C 57.5832394361496 36.02659893035889 55.956876039505005 37.62500774860382 53.95826065540314 37.62500774860382 C 53.95826065540314 37.62500774860382 8.041645646095276 37.62500774860382 8.041645646095276 37.62500774860382 C 6.043030261993408 37.62500774860382 4.416585445404053 36.02659893035889 4.416585445404053 34.06248700618744 C 4.416585445404053 34.06248700618744 4.416585445404053 7.937417149543762 4.416585445404053 7.937417149543762 C 4.416585445404053 5.9733052253723145 6.043030261993408 4.37489640712738 8.041645646095276 4.37489640712738 C 8.041645646095276 4.37489640712738 53.958179235458374 4.37489640712738 53.958179235458374 4.37489640712738 C 55.95679461956024 4.37489640712738 57.583158016204834 5.9733052253723145 57.583158016204834 7.937417149543762 C 57.583158016204834 7.937417149543762 57.583158016204834 34.06248700618744 57.583158016204834 34.06248700618744 C 57.583158016204834 34.06248700618744 57.5832394361496 34.06248700618744 57.5832394361496 34.06248700618744 Z M 58.79151141643524 9.124841809272766 C 58.79151141643524 9.124841809272766 3.2083948850631714 9.124841809272766 3.2083948850631714 9.124841809272766 C 2.5414026975631714 9.124841809272766 1.9999600648880005 9.656986713409424 1.9999600648880005 10.312389850616455 C 1.9999600648880005 10.312389850616455 1.9999600648880005 17.43743133544922 1.9999600648880005 17.43743133544922 C 1.9999600648880005 18.092957854270935 2.5414026975631714 18.624979376792908 3.2083948850631714 18.624979376792908 C 3.2083948850631714 18.624979376792908 58.791592836380005 18.624979376792908 58.791592836380005 18.624979376792908 C 59.45866644382477 18.624979376792908 60.000027656555176 18.092957854270935 60.000027656555176 17.43743133544922 C 60.000027656555176 17.43743133544922 60.000027656555176 10.312389850616455 60.000027656555176 10.312389850616455 C 59.99986481666565 9.656986713409424 59.45850360393524 9.124841809272766 58.79151141643524 9.124841809272766 Z M 57.5832394361496 16.24988329410553 C 57.5832394361496 16.24988329410553 4.416585445404053 16.24988329410553 4.416585445404053 16.24988329410553 C 4.416585445404053 16.24988329410553 4.416585445404053 11.499937891960144 4.416585445404053 11.499937891960144 C 4.416585445404053 11.499937891960144 57.583158016204834 11.499937891960144 57.583158016204834 11.499937891960144 C 57.583158016204834 11.499937891960144 57.583158016204834 16.24988329410553 57.583158016204834 16.24988329410553 C 57.583158016204834 16.24988329410553 57.5832394361496 16.24988329410553 57.5832394361496 16.24988329410553 Z M 24.958348989486694 25.75002086162567 C 24.958348989486694 25.75002086162567 10.458352446556091 25.75002086162567 10.458352446556091 25.75002086162567 C 9.791360259056091 25.75002086162567 9.249999046325684 26.28216576576233 9.249999046325684 26.93756890296936 C 9.249999046325684 27.59321880340576 9.791360259056091 28.124993562698364 10.458352446556091 28.124993562698364 C 10.458352446556091 28.124993562698364 24.958348989486694 28.124993562698364 24.958348989486694 28.124993562698364 C 25.625341176986694 28.124993562698364 26.166702389717102 27.593095421791077 26.166702389717102 26.937445521354675 C 26.166702389717102 26.282042384147644 25.625341176986694 25.75002086162567 24.958348989486694 25.75002086162567 Z M 24.958348989486694 30.499966263771057 C 24.958348989486694 30.499966263771057 10.458352446556091 30.499966263771057 10.458352446556091 30.499966263771057 C 9.791360259056091 30.499966263771057 9.249999046325684 31.031864404678345 9.249999046325684 31.687514305114746 C 9.249999046325684 32.34291744232178 9.791360259056091 32.875062346458435 10.458352446556091 32.875062346458435 C 10.458352446556091 32.875062346458435 24.958348989486694 32.875062346458435 24.958348989486694 32.875062346458435 C 25.625341176986694 32.875062346458435 26.166702389717102 32.34291744232178 26.166702389717102 31.687514305114746 C 26.16662096977234 31.031864404678345 25.625341176986694 30.499966263771057 24.958348989486694 30.499966263771057 Z M 49.12492847442627 23.374924778938293 C 49.12492847442627 23.374924778938293 46.70830309391022 23.374924778938293 46.70830309391022 23.374924778938293 C 44.70968770980835 23.374924778938293 43.08332431316376 24.973210215568542 43.08332431316376 26.937445521354675 C 43.08332431316376 26.937445521354675 43.08332431316376 29.312418222427368 43.08332431316376 29.312418222427368 C 43.08332431316376 31.2766535282135 44.70968770980835 32.87493896484375 46.70830309391022 32.87493896484375 C 46.70830309391022 32.87493896484375 49.12492847442627 32.87493896484375 49.12492847442627 32.87493896484375 C 51.12354385852814 32.87493896484375 52.74990725517273 31.2766535282135 52.74990725517273 29.312418222427368 C 52.74990725517273 29.312418222427368 52.74990725517273 26.937445521354675 52.74990725517273 26.937445521354675 C 52.74990725517273 24.973333597183228 51.12354385852814 23.374924778938293 49.12492847442627 23.374924778938293 Z M 50.33328187465668 29.31266498565674 C 50.33328187465668 29.96806812286377 49.79192066192627 30.500089645385742 49.12492847442627 30.500089645385742 C 49.12492847442627 30.500089645385742 46.70830309391022 30.500089645385742 46.70830309391022 30.500089645385742 C 46.04131090641022 30.500089645385742 45.49994969367981 29.96806812286377 45.49994969367981 29.31266498565674 C 45.49994969367981 29.31266498565674 45.49994969367981 26.93756890296936 45.49994969367981 26.93756890296936 C 45.49994969367981 26.28216576576233 46.04131090641022 25.75002086162567 46.70830309391022 25.75002086162567 C 46.70830309391022 25.75002086162567 49.12492847442627 25.75002086162567 49.12492847442627 25.75002086162567 C 49.79192066192627 25.75002086162567 50.33328187465668 26.28216576576233 50.33328187465668 26.93756890296936 C 50.33328187465668 26.93756890296936 50.33328187465668 29.31266498565674 50.33328187465668 29.31266498565674 Z"/></g></svg>