<svg version="1.1" xmlns="http://www.w3.org/2000/svg" xmlns:xlink="http://www.w3.org/1999/xlink" width="57" height="42"><defs/><g><path fill="rgb(0,0,0)" stroke="none" paint-order="stroke fill markers" fill-rule="evenodd" d=" M 45.87499213218689 14.33326530456543 C 45.87499213218689 14.33326530456543 12.124959468841553 14.33326530456543 12.124959468841553 14.33326530456543 C 6.542726635932922 14.33326530456543 1.999982237815857 18.8199143409729 1.999982237815857 24.333221793174744 C 1.999982237815857 24.333221793174744 1.999982237815857 37.666579365730286 1.999982237815857 37.666579365730286 C 1.999982237815857 39.50447189807892 3.5142303705215454 40.99985706806183 5.375001788139343 40.99985706806183 C 5.375001788139343 40.99985706806183 52.62503123283386 40.99985706806183 52.62503123283386 40.99985706806183 C 54.48580265045166 40.99985706806183 55.999969363212585 39.50447189807892 55.999969363212585 37.666579365730286 C 55.999969363212585 37.666579365730286 55.999969363212585 24.333221793174744 55.999969363212585 24.333221793174744 C 55.999969363212585 18.8199143409729 51.45722496509552 14.33326530456543 45.87499213218689 14.33326530456543 Z M 53.75001060962677 37.666579365730286 C 53.75001060962677 38.277811884880066 53.246021151542664 38.77775418758392 52.62503123283386 38.77775418758392 C 52.62503123283386 38.77775418758392 5.375001788139343 38.77775418758392 5.375001788139343 38.77775418758392 C 4.754011869430542 38.77775418758392 4.249940991401672 38.277811884880066 4.249940991401672 37.666579365730286 C 4.249940991401672 37.666579365730286 4.249940991401672 24.333221793174744 4.249940991401672 24.333221793174744 C 4.249940991401672 20.044476866722107 7.782426714897156 16.55549156665802 12.124959468841553 16.55549156665802 C 12.124959468841553 16.55549156665802 45.87499213218689 16.55549156665802 45.87499213218689 16.55549156665802 C 50.21744346618652 16.55549156665802 53.75001060962677 20.044353485107422 53.75001060962677 24.333221793174744 C 53.75001060962677 24.333221793174744 53.75001060962677 37.666579365730286 53.75001060962677 37.666579365730286 Z M 12.124959468841553 14.33326530456543 C 11.503969550132751 14.33326530456543 10.999980092048645 14.831233501434326 10.999980092048645 15.444440126419067 C 10.999980092048645 16.05764675140381 11.503969550132751 16.55549156665802 12.124959468841553 16.55549156665802 C 16.46749222278595 16.55549156665802 20.000059366226196 20.044353485107422 20.000059366226196 24.333221793174744 C 20.000059366226196 24.333221793174744 20.000059366226196 37.666579365730286 20.000059366226196 37.666579365730286 C 20.000059366226196 38.277811884880066 19.495988488197327 38.77775418758392 18.874998569488525 38.77775418758392 C 18.254008650779724 38.77775418758392 17.749937772750854 39.275599002838135 17.749937772750854 39.888805627822876 C 17.749937772750854 40.5021356344223 18.254008650779724 40.999980449676514 18.874998569488525 40.999980449676514 C 20.735769987106323 40.999980449676514 22.25001811981201 39.50447189807892 22.25001811981201 37.66670274734497 C 22.25001811981201 37.66670274734497 22.25001811981201 24.333221793174744 22.25001811981201 24.333221793174744 C 22.25001811981201 18.8199143409729 17.707273721694946 14.33326530456543 12.124959468841553 14.33326530456543 Z M 41.374993205070496 1.0000311136245728 C 41.374993205070496 1.0000311136245728 30.125036597251892 1.0000311136245728 30.125036597251892 1.0000311136245728 C 29.50404667854309 1.0000311136245728 28.99997580051422 1.4978759288787842 28.99997580051422 2.1112059354782104 C 28.99997580051422 2.1112059354782104 28.99997580051422 24.333221793174744 28.99997580051422 24.333221793174744 C 28.99997580051422 24.946675181388855 29.50404667854309 25.44439661502838 30.125036597251892 25.44439661502838 C 30.746026515960693 25.44439661502838 31.250097393989563 24.946675181388855 31.250097393989563 24.333221793174744 C 31.250097393989563 24.333221793174744 31.250097393989563 9.888689398765564 31.250097393989563 9.888689398765564 C 31.250097393989563 9.888689398765564 41.37507462501526 9.888689398765564 41.37507462501526 9.888689398765564 C 41.99606454372406 9.888689398765564 42.50013542175293 9.390967965126038 42.50013542175293 8.777637958526611 C 42.50013542175293 8.777637958526611 42.50013542175293 2.1110825538635254 42.50013542175293 2.1110825538635254 C 42.4999725818634 1.4978759288787842 41.9959831237793 1.0000311136245728 41.374993205070496 1.0000311136245728 Z M 40.25001382827759 7.666709899902344 C 40.25001382827759 7.666709899902344 31.250097393989563 7.666709899902344 31.250097393989563 7.666709899902344 C 31.250097393989563 7.666709899902344 31.250097393989563 3.222257375717163 31.250097393989563 3.222257375717163 C 31.250097393989563 3.222257375717163 40.25001382827759 3.222257375717163 40.25001382827759 3.222257375717163 C 40.25001382827759 3.222257375717163 40.25001382827759 7.666709899902344 40.25001382827759 7.666709899902344 Z"/></g></svg>