<svg version="1.1" xmlns="http://www.w3.org/2000/svg" xmlns:xlink="http://www.w3.org/1999/xlink" width="62" height="39"><defs/><g><path fill="rgb(0,0,0)" stroke="none" paint-order="stroke fill markers" fill-rule="evenodd" d=" M 55.93979012966156 17.26161253452301 C 55.93979012966156 17.26161253452301 54.43775498867035 11.366562366485596 54.43775498867035 11.366562366485596 C 54.84843719005585 11.28105890750885 55.156530261039734 10.92349898815155 55.156530261039734 10.495364785194397 C 55.156530261039734 10.495364785194397 55.156530261039734 9.544832825660706 55.156530261039734 9.544832825660706 C 55.156530261039734 7.4810285568237305 53.44540870189667 5.802298307418823 51.342331528663635 5.802298307418823 C 51.342331528663635 5.802298307418823 44.5011020898819 5.802298307418823 44.5011020898819 5.802298307418823 C 44.5011020898819 5.802298307418823 44.5011020898819 3.841517686843872 44.5011020898819 3.841517686843872 C 44.5011020898819 2.82608699798584 43.65921986103058 1.9999237060546875 42.62420952320099 1.9999237060546875 C 42.62420952320099 1.9999237060546875 7.751477241516113 1.9999237060546875 7.751477241516113 1.9999237060546875 C 6.716548323631287 1.9999237060546875 5.874666094779968 2.82608699798584 5.874666094779968 3.841517686843872 C 5.874666094779968 3.841517686843872 5.874666094779968 20.00019085407257 5.874666094779968 20.00019085407257 C 5.874666094779968 20.492236733436584 6.281277298927307 20.89137625694275 6.782824158668518 20.89137625694275 C 7.284371018409729 20.89137625694275 7.690982222557068 20.49236011505127 7.690982222557068 20.00019085407257 C 7.690982222557068 20.00019085407257 7.690982222557068 3.841517686843872 7.690982222557068 3.841517686843872 C 7.690982222557068 3.8088215589523315 7.718095064163208 3.782417893409729 7.751477241516113 3.782417893409729 C 7.751477241516113 3.782417893409729 42.624128103256226 3.782417893409729 42.624128103256226 3.782417893409729 C 42.65751028060913 3.782417893409729 42.68462312221527 3.8088215589523315 42.68462312221527 3.841517686843872 C 42.68462312221527 3.841517686843872 42.68462312221527 20.00043761730194 42.68462312221527 20.00043761730194 C 42.68462312221527 20.492483496665955 43.09115290641785 20.891499638557434 43.59278118610382 20.891499638557434 C 44.09432804584503 20.891499638557434 44.50093924999237 20.49260687828064 44.50093924999237 20.00043761730194 C 44.50093924999237 20.00043761730194 44.50093924999237 18.99018895626068 44.50093924999237 18.99018895626068 C 44.50093924999237 18.99018895626068 55.213849902153015 18.99018895626068 55.213849902153015 18.99018895626068 C 55.21474552154541 18.99018895626068 55.21547830104828 18.99043571949005 55.21621108055115 18.99043571949005 C 55.217188119888306 18.99043571949005 55.217920899391174 18.990312337875366 55.218735098838806 18.990312337875366 C 56.53700542449951 18.99117600917816 57.656285405159 19.84016489982605 58.04083180427551 21.01019275188446 C 58.04083180427551 21.01019275188446 55.216943860054016 21.01019275188446 55.216943860054016 21.01019275188446 C 54.715397000312805 21.01019275188446 54.308785796165466 21.409085512161255 54.308785796165466 21.901254773139954 C 54.308785796165466 21.901254773139954 54.308785796165466 23.80219531059265 54.308785796165466 23.80219531059265 C 54.308785796165466 25.341874480247498 55.585206270217896 26.594197869300842 57.15425002574921 26.594197869300842 C 57.15425002574921 26.594197869300842 58.18356096744537 26.594197869300842 58.18356096744537 26.594197869300842 C 58.18356096744537 26.594197869300842 58.18356096744537 30.51514220237732 58.18356096744537 30.51514220237732 C 58.18356096744537 30.51514220237732 55.808948278427124 30.51514220237732 55.808948278427124 30.51514220237732 C 55.02886378765106 28.305007338523865 52.88776350021362 26.713014364242554 50.37343418598175 26.713014364242554 C 47.85918629169464 26.713014364242554 45.717923164367676 28.305007338523865 44.93800151348114 30.51514220237732 C 44.93800151348114 30.51514220237732 44.500776410102844 30.51514220237732 44.500776410102844 30.51514220237732 C 44.500776410102844 30.51514220237732 44.500776410102844 23.80219531059265 44.500776410102844 23.80219531059265 C 44.500776410102844 23.310026049613953 44.094165205955505 22.910886526107788 43.59253692626953 22.910886526107788 C 43.09107148647308 22.910886526107788 42.68437886238098 23.309902667999268 42.68437886238098 23.80219531059265 C 42.68437886238098 23.80219531059265 42.68437886238098 30.51489543914795 42.68437886238098 30.51489543914795 C 42.68437886238098 30.51489543914795 23.84258234500885 30.51489543914795 23.84258234500885 30.51489543914795 C 23.062497854232788 28.30463719367981 20.92139756679535 26.71289098262787 18.407068252563477 26.71289098262787 C 15.892820358276367 26.71289098262787 13.751557230949402 28.30463719367981 12.971635580062866 30.51489543914795 C 12.971635580062866 30.51489543914795 7.751477241516113 30.51489543914795 7.751477241516113 30.51489543914795 C 7.718095064163208 30.51489543914795 7.690982222557068 30.488245010375977 7.690982222557068 30.45542550086975 C 7.690982222557068 30.45542550086975 7.690982222557068 28.495015025138855 7.690982222557068 28.495015025138855 C 7.690982222557068 28.495015025138855 11.626333832740784 28.495015025138855 11.626333832740784 28.495015025138855 C 12.127799272537231 28.495015025138855 12.534491896629333 28.09612226486206 12.534491896629333 27.603953003883362 C 12.534491896629333 27.111660361289978 12.127880692481995 26.71289098262787 11.626333832740784 26.71289098262787 C 11.626333832740784 26.71289098262787 2.908211827278137 26.71289098262787 2.908211827278137 26.71289098262787 C 2.4066649675369263 26.71289098262787 1.9999723434448242 27.111660361289978 1.9999723434448242 27.603953003883362 C 1.9999723434448242 28.09612226486206 2.406583547592163 28.495015025138855 2.908211827278137 28.495015025138855 C 2.908211827278137 28.495015025138855 5.8747475147247314 28.495015025138855 5.8747475147247314 28.495015025138855 C 5.8747475147247314 28.495015025138855 5.8747475147247314 30.45542550086975 5.8747475147247314 30.45542550086975 C 5.8747475147247314 31.47097957134247 6.716711163520813 32.297019481658936 7.75164008140564 32.297019481658936 C 7.75164008140564 32.297019481658936 12.657191753387451 32.297019481658936 12.657191753387451 32.297019481658936 C 12.656947493553162 32.317007303237915 12.655563354492188 32.336501598358154 12.655563354492188 32.356489419937134 C 12.655563354492188 35.46842050552368 15.235761404037476 37.999964475631714 18.407068252563477 37.999964475631714 C 21.578375101089478 37.999964475631714 24.158573150634766 35.46842050552368 24.158573150634766 32.356489419937134 C 24.158573150634766 32.33637821674347 24.157270431518555 32.317007303237915 24.157026171684265 32.297019481658936 C 24.157026171684265 32.297019481658936 44.623557686805725 32.297019481658936 44.623557686805725 32.297019481658936 C 44.623313426971436 32.317007303237915 44.62192928791046 32.336501598358154 44.62192928791046 32.356489419937134 C 44.62192928791046 35.46842050552368 47.20212733745575 37.999964475631714 50.37343418598175 37.999964475631714 C 53.54474103450775 37.999964475631714 56.1250205039978 35.46842050552368 56.1250205039978 32.356489419937134 C 56.1250205039978 32.33637821674347 56.12363636493683 32.317007303237915 56.12339210510254 32.297019481658936 C 56.12339210510254 32.297019481658936 59.09171903133392 32.297019481658936 59.09171903133392 32.297019481658936 C 59.59318447113037 32.297019481658936 59.99987709522247 31.89812672138214 59.99987709522247 31.405957460403442 C 59.99987709522247 31.405957460403442 59.99987709522247 21.901008009910583 59.99987709522247 21.901008009910583 C 60.000039935112 19.55428969860077 58.23542547225952 17.604613423347473 55.93979012966156 17.26161253452301 Z M 44.5011020898819 7.58442234992981 C 44.5011020898819 7.58442234992981 51.342331528663635 7.58442234992981 51.342331528663635 7.58442234992981 C 52.44402480125427 7.58442234992981 53.3402955532074 8.463763117790222 53.3402955532074 9.544832825660706 C 53.3402955532074 9.544832825660706 53.3402955532074 9.604179382324219 53.3402955532074 9.604179382324219 C 53.3402955532074 9.604179382324219 44.5011020898819 9.604179382324219 44.5011020898819 9.604179382324219 C 44.5011020898819 9.604179382324219 44.5011020898819 7.58442234992981 44.5011020898819 7.58442234992981 Z M 44.5011020898819 17.20818829536438 C 44.5011020898819 17.20818829536438 44.5011020898819 11.386303424835205 44.5011020898819 11.386303424835205 C 44.5011020898819 11.386303424835205 52.570714235305786 11.386303424835205 52.570714235305786 11.386303424835205 C 52.570714235305786 11.386303424835205 54.0539413690567 17.20818829536438 54.0539413690567 17.20818829536438 C 54.0539413690567 17.20818829536438 44.5011020898819 17.20818829536438 44.5011020898819 17.20818829536438 C 44.5011020898819 17.20818829536438 44.5011020898819 17.20818829536438 44.5011020898819 17.20818829536438 Z M 18.407068252563477 36.21796381473541 C 16.237226724624634 36.21796381473541 14.471798062324524 34.48593270778656 14.471798062324524 32.356736183166504 C 14.471798062324524 30.227292895317078 16.237226724624634 28.495261788368225 18.407068252563477 28.495261788368225 C 20.576991200447083 28.495261788368225 22.34233844280243 30.227292895317078 22.34233844280243 32.356736183166504 C 22.34233844280243 34.48593270778656 20.576991200447083 36.21796381473541 18.407068252563477 36.21796381473541 Z M 50.37367844581604 36.21796381473541 C 48.203755497932434 36.21796381473541 46.43840825557709 34.48593270778656 46.43840825557709 32.356736183166504 C 46.43840825557709 30.227292895317078 48.203755497932434 28.495261788368225 50.37367844581604 28.495261788368225 C 52.543601393699646 28.495261788368225 54.30894863605499 30.227292895317078 54.30894863605499 32.356736183166504 C 54.30894863605499 34.48593270778656 52.543601393699646 36.21796381473541 50.37367844581604 36.21796381473541 Z M 58.1837238073349 24.812073826789856 C 58.1837238073349 24.812073826789856 57.154494285583496 24.812073826789856 57.154494285583496 24.812073826789856 C 56.58691585063934 24.812073826789856 56.12518334388733 24.35901653766632 56.12518334388733 23.80219531059265 C 56.12518334388733 23.80219531059265 56.12518334388733 22.79219341278076 56.12518334388733 22.79219341278076 C 56.12518334388733 22.79219341278076 58.18364238739014 22.79219341278076 58.18364238739014 22.79219341278076 C 58.18364238739014 22.79219341278076 58.18364238739014 24.812073826789856 58.18364238739014 24.812073826789856 C 58.18364238739014 24.812073826789856 58.1837238073349 24.812073826789856 58.1837238073349 24.812073826789856 Z M 18.407068252563477 30.51514220237732 C 17.37213933467865 30.51514220237732 16.53025710582733 31.341182112693787 16.53025710582733 32.356736183166504 C 16.53025710582733 33.372166872024536 17.37213933467865 34.19833016395569 18.407068252563477 34.19833016395569 C 19.441997170448303 34.19833016395569 20.283960819244385 33.372166872024536 20.283960819244385 32.356736183166504 C 20.283960819244385 31.341182112693787 19.441997170448303 30.51514220237732 18.407068252563477 30.51514220237732 Z M 50.37367844581604 30.51514220237732 C 49.33874952793121 30.51514220237732 48.496867299079895 31.341182112693787 48.496867299079895 32.356736183166504 C 48.496867299079895 33.372166872024536 49.33874952793121 34.19833016395569 50.37367844581604 34.19833016395569 C 51.40860736370087 34.19833016395569 52.25057101249695 33.372166872024536 52.25057101249695 32.356736183166504 C 52.25057101249695 31.341182112693787 51.40860736370087 30.51514220237732 50.37367844581604 30.51514220237732 Z M 39.71808743476868 26.71313774585724 C 39.71808743476868 26.71313774585724 26.156537175178528 26.71313774585724 26.156537175178528 26.71313774585724 C 25.65507173538208 26.71313774585724 25.248379111289978 27.11215388774872 25.248379111289978 27.604199767112732 C 25.248379111289978 28.09636902809143 25.654908895492554 28.49538516998291 26.156537175178528 28.49538516998291 C 26.156537175178528 28.49538516998291 39.71808743476868 28.49538516998291 39.71808743476868 28.49538516998291 C 40.21963429450989 28.49538516998291 40.62632691860199 28.09636902809143 40.62632691860199 27.604199767112732 C 40.62632691860199 27.11215388774872 40.21971571445465 26.71313774585724 39.71808743476868 26.71313774585724 Z M 16.469762086868286 22.911133289337158 C 16.469762086868286 22.911133289337158 4.845517992973328 22.911133289337158 4.845517992973328 22.911133289337158 C 4.34405255317688 22.911133289337158 3.937359929084778 23.310026049613953 3.937359929084778 23.80219531059265 C 3.937359929084778 24.29436457157135 4.3438897132873535 24.69338071346283 4.845517992973328 24.69338071346283 C 4.845517992973328 24.69338071346283 16.469762086868286 24.69338071346283 16.469762086868286 24.69338071346283 C 16.971227526664734 24.69338071346283 17.377920150756836 24.29436457157135 17.377920150756836 23.80219531059265 C 17.377920150756836 23.310026049613953 16.971227526664734 22.911133289337158 16.469762086868286 22.911133289337158 Z M 33.57951211929321 10.815416693687439 C 33.22492825984955 10.467480540275574 32.64985918998718 10.467480540275574 32.29527533054352 10.815663456916809 C 32.29527533054352 10.815663456916809 24.219231009483337 18.739971041679382 24.219231009483337 18.739971041679382 C 24.219231009483337 18.739971041679382 20.017961859703064 14.617544531822205 20.017961859703064 14.617544531822205 C 19.663296580314636 14.26936161518097 19.08822751045227 14.26936161518097 18.733643651008606 14.617544531822205 C 18.378978371620178 14.96548068523407 18.378978371620178 15.529581427574158 18.733643651008606 15.877640962600708 C 18.733643651008606 15.877640962600708 23.57715332508087 20.63017737865448 23.57715332508087 20.63017737865448 C 23.754404544830322 20.804392218589783 23.98685848712921 20.891252875328064 24.219231009483337 20.891252875328064 C 24.4515221118927 20.891252875328064 24.684138894081116 20.804392218589783 24.861308693885803 20.63017737865448 C 24.861308693885803 20.63017737865448 33.57943069934845 12.075759887695312 33.57943069934845 12.075759887695312 C 33.93409597873688 11.727576971054077 33.93409597873688 11.16347622871399 33.57951211929321 10.815416693687439 Z"/></g></svg>