<svg version="1.1" xmlns="http://www.w3.org/2000/svg" xmlns:xlink="http://www.w3.org/1999/xlink" width="58" height="54"><defs/><g><path fill="rgb(0,0,0)" stroke="none" paint-order="stroke fill markers" fill-rule="evenodd" d=" M 24.64389479160309 42.49645209312439 C 22.02510368824005 42.49645209312439 19.894587993621826 44.62811625003815 19.894587993621826 47.24824821949005 C 19.894587993621826 49.86850357055664 22.02510368824005 52.0001677274704 24.64389479160309 52.0001677274704 C 27.262604475021362 52.0001677274704 29.39320158958435 49.86850357055664 29.39320158958435 47.24824821949005 C 29.393038749694824 44.62811625003815 27.2625230550766 42.49645209312439 24.64389479160309 42.49645209312439 Z M 24.64389479160309 49.34672272205353 C 23.487243056297302 49.34672272205353 22.546354174613953 48.405197620391846 22.546354174613953 47.248124837875366 C 22.546354174613953 46.0909286737442 23.48740589618683 45.149280190467834 24.64389479160309 45.149280190467834 C 25.800383687019348 45.149280190467834 26.74135398864746 46.09105205535889 26.74135398864746 47.248124837875366 C 26.74135398864746 48.405444383621216 25.800383687019348 49.34672272205353 24.64389479160309 49.34672272205353 Z M 41.30265974998474 42.49645209312439 C 38.683868646621704 42.49645209312439 36.55335295200348 44.62811625003815 36.55335295200348 47.24824821949005 C 36.55335295200348 49.86850357055664 38.683868646621704 52.0001677274704 41.30265974998474 52.0001677274704 C 43.92145085334778 52.0001677274704 46.051966547966 49.86850357055664 46.051966547966 47.24824821949005 C 46.05188512802124 44.62811625003815 43.921369433403015 42.49645209312439 41.30265974998474 42.49645209312439 Z M 41.30265974998474 49.34672272205353 C 40.14608943462372 49.34672272205353 39.205119132995605 48.405197620391846 39.205119132995605 47.248124837875366 C 39.205119132995605 46.0909286737442 40.14617085456848 45.149280190467834 41.30265974998474 45.149280190467834 C 42.45931148529053 45.149280190467834 43.40020036697388 46.09105205535889 43.40020036697388 47.248124837875366 C 43.40020036697388 48.405444383621216 42.459148645401 49.34672272205353 41.30265974998474 49.34672272205353 Z M 42.47193157672882 17.47836208343506 C 42.47193157672882 17.47836208343506 23.471203327178955 17.47836208343506 23.471203327178955 17.47836208343506 C 22.738912343978882 17.47836208343506 22.145360946655273 18.072197794914246 22.145360946655273 18.80496120452881 C 22.145360946655273 19.537601232528687 22.739075183868408 20.13156032562256 23.471203327178955 20.13156032562256 C 23.471203327178955 20.13156032562256 42.47193157672882 20.13156032562256 42.47193157672882 20.13156032562256 C 43.204222559928894 20.13156032562256 43.797855377197266 19.537601232528687 43.797855377197266 18.80496120452881 C 43.797855377197266 18.07207441329956 43.204222559928894 17.47836208343506 42.47193157672882 17.47836208343506 Z M 41.437816858291626 24.36725115776062 C 41.437816858291626 24.36725115776062 24.505480885505676 24.36725115776062 24.505480885505676 24.36725115776062 C 23.773189902305603 24.36725115776062 23.179638504981995 24.961210250854492 23.179638504981995 25.693973660469055 C 23.179638504981995 26.426490306854248 23.773189902305603 27.020572781562805 24.505480885505676 27.020572781562805 C 24.505480885505676 27.020572781562805 41.4376540184021 27.020572781562805 41.4376540184021 27.020572781562805 C 42.16994500160217 27.020572781562805 42.763577818870544 26.426490306854248 42.763577818870544 25.693973660469055 C 42.763577818870544 24.961333632469177 42.16994500160217 24.36725115776062 41.437816858291626 24.36725115776062 Z M 55.405489802360535 11.567642450332642 C 54.8997905254364 10.946662783622742 54.150564193725586 10.590706825256348 53.34988045692444 10.590706825256348 C 53.34988045692444 10.590706825256348 12.049776315689087 10.590706825256348 12.049776315689087 10.590706825256348 C 12.049776315689087 10.590706825256348 11.215710401535034 6.539471507072449 11.215710401535034 6.539471507072449 C 11.041553139686584 5.694307446479797 10.465425610542297 4.984739780426025 9.674349427223206 4.640998601913452 C 9.674349427223206 4.640998601913452 3.854696035385132 2.113649606704712 3.854696035385132 2.113649606704712 C 3.182818651199341 1.8217287063598633 2.40200138092041 2.1300593614578247 2.110599398612976 2.802119016647339 C 1.8188717365264893 3.474302053451538 2.1271276473999023 4.255554437637329 2.7986793518066406 4.547228574752808 C 2.7986793518066406 4.547228574752808 8.618414163589478 7.074700951576233 8.618414163589478 7.074700951576233 C 8.618414163589478 7.074700951576233 15.033898711204529 38.233370542526245 15.033898711204529 38.233370542526245 C 15.28662621974945 39.46052408218384 16.37887477874756 40.35109257698059 17.631113529205322 40.35109257698059 C 17.631113529205322 40.35109257698059 49.39572083950043 40.35109257698059 49.39572083950043 40.35109257698059 C 50.128093242645264 40.35109257698059 50.72164463996887 39.75713348388672 50.72164463996887 39.02449345588684 C 50.72164463996887 38.29173004627228 50.128093242645264 37.69789433479309 49.39572083950043 37.69789433479309 C 49.39572083950043 37.69789433479309 17.63127636909485 37.69789433479309 17.63127636909485 37.69789433479309 C 17.63127636909485 37.69789433479309 16.850866198539734 33.90785789489746 16.850866198539734 33.90785789489746 C 16.850866198539734 33.90785789489746 49.64128339290619 33.90785789489746 49.64128339290619 33.90785789489746 C 50.89344072341919 33.90785789489746 51.985852122306824 33.01716601848602 52.23841679096222 31.79001247882843 C 52.23841679096222 31.79001247882843 55.947176694869995 13.778887748718262 55.947176694869995 13.778887748718262 C 56.10863244533539 12.99467420578003 55.91118907928467 12.188375353813171 55.405489802360535 11.567642450332642 Z M 49.64128339290619 31.25465965270996 C 49.64128339290619 31.25465965270996 16.304619789123535 31.25465965270996 16.304619789123535 31.25465965270996 C 16.304619789123535 31.25465965270996 12.596104145050049 13.243658304214478 12.596104145050049 13.243658304214478 C 12.596104145050049 13.243658304214478 53.349799036979675 13.243905067443848 53.349799036979675 13.243905067443848 C 53.349799036979675 13.243905067443848 49.64128339290619 31.25465965270996 49.64128339290619 31.25465965270996 Z"/></g></svg>