<svg version="1.1" xmlns="http://www.w3.org/2000/svg" xmlns:xlink="http://www.w3.org/1999/xlink" width="84" height="63"><defs/><g><path fill="rgb(0,0,0)" stroke="none" paint-order="stroke fill markers" fill-rule="evenodd" d=" M 81.49128913879395 9.549123287200928 C 81.49128913879395 9.549123287200928 77.8809642791748 9.549123287200928 77.8809642791748 9.549123287200928 C 77.8809642791748 9.549123287200928 77.8809642791748 6.1285611391067505 77.8809642791748 6.1285611391067505 C 77.8809642791748 5.362429976463318 77.30811595916748 4.7177574634552 76.54844284057617 4.6283347606658936 C 76.54844284057617 4.6283347606658936 55.630431175231934 2.1684436798095703 55.630431175231934 2.1684436798095703 C 50.93942642211914 1.6166203022003174 46.24370098114014 2.402064085006714 41.999802589416504 4.440623760223389 C 37.75561809539795 2.402064085006714 33.06075096130371 1.61640465259552 28.369102478027344 2.1684436798095703 C 28.369102478027344 2.1684436798095703 7.4510908126831055 4.6283347606658936 7.4510908126831055 4.6283347606658936 C 6.691417694091797 4.7177574634552 6.118569374084473 5.362429976463318 6.118569374084473 6.1285611391067505 C 6.118569374084473 6.1285611391067505 6.118569374084473 9.549123287200928 6.118569374084473 9.549123287200928 C 6.118569374084473 9.549123287200928 2.5086021423339844 9.549123287200928 2.5086021423339844 9.549123287200928 C 1.6753292083740234 9.549123287200928 1.0001277923583984 10.225424408912659 1.0001277923583984 11.05960500240326 C 1.0001277923583984 11.05960500240326 1.0001277923583984 60.48936975002289 1.0001277923583984 60.48936975002289 C 1.0001277923583984 61.32357430458069 1.6753292083740234 61.99985146522522 2.5086021423339844 61.99985146522522 C 2.5086021423339844 61.99985146522522 81.49128913879395 61.99985146522522 81.49128913879395 61.99985146522522 C 82.32463359832764 61.99985146522522 82.99983501434326 61.32357430458069 82.99983501434326 60.48936975002289 C 82.99983501434326 60.48936975002289 82.99983501434326 11.05960500240326 82.99983501434326 11.05960500240326 C 82.99983501434326 10.225424408912659 82.32441902160645 9.549123287200928 81.49128913879395 9.549123287200928 Z M 55.2784538269043 5.168896436691284 C 55.2784538269043 5.168896436691284 74.86372947692871 7.472082138061523 74.86372947692871 7.472082138061523 C 74.86372947692871 7.472082138061523 74.86372947692871 52.39553689956665 74.86372947692871 52.39553689956665 C 74.86372947692871 52.39553689956665 55.630431175231934 50.133827805519104 55.630431175231934 50.133827805519104 C 51.48845672607422 49.64665138721466 47.34333515167236 50.20372223854065 43.50827693939209 51.74362814426422 C 43.50827693939209 51.74362814426422 43.50827693939209 7.069703936576843 43.50827693939209 7.069703936576843 C 47.183189392089844 5.3507609367370605 51.233038902282715 4.693173408508301 55.2784538269043 5.168896436691284 Z M 28.721294403076172 5.168896436691284 C 32.76649475097656 4.692981719970703 36.816773414611816 5.3507609367370605 40.49147129058838 7.069703936576843 C 40.49147129058838 7.069703936576843 40.49147129058838 51.74401152133942 40.49147129058838 51.74401152133942 C 37.558135986328125 50.56622922420502 34.443769454956055 49.962242603302 31.287989616394043 49.962242603302 C 30.317888259887695 49.962242603302 29.34342384338379 50.019245982170105 28.369317054748535 50.133636116981506 C 28.369317054748535 50.133636116981506 9.135804176330566 52.39534521102905 9.135804176330566 52.39534521102905 C 9.135804176330566 52.39534521102905 9.135804176330566 7.472082138061523 9.135804176330566 7.472082138061523 C 9.135804176330566 7.472082138061523 28.721294403076172 5.168896436691284 28.721294403076172 5.168896436691284 Z M 79.98281478881836 58.97888803482056 C 79.98281478881836 58.97888803482056 4.017148017883301 58.97888803482056 4.017148017883301 58.97888803482056 C 4.017148017883301 58.97888803482056 4.017148017883301 12.57011067867279 4.017148017883301 12.57011067867279 C 4.017148017883301 12.57011067867279 6.118783950805664 12.57011067867279 6.118783950805664 12.57011067867279 C 6.118783950805664 12.57011067867279 6.118783950805664 54.09372961521149 6.118783950805664 54.09372961521149 C 6.118783950805664 54.52514863014221 6.30281925201416 54.93579339981079 6.6248273849487305 55.22239172458649 C 6.94669246673584 55.50896608829498 7.375702857971191 55.64432215690613 7.803282737731934 55.593955993652344 C 7.803282737731934 55.593955993652344 28.721294403076172 53.13406491279602 28.721294403076172 53.13406491279602 C 33.067402839660645 52.62273573875427 37.41994857788086 53.41845881938934 41.305646896362305 55.43485450744629 C 41.74088001251221 55.660831332206726 42.25865364074707 55.660831332206726 42.69388675689697 55.43485450744629 C 46.57937049865723 53.41845881938934 50.93034267425537 52.62273573875427 55.278239250183105 53.13406491279602 C 55.278239250183105 53.13406491279602 76.19603633880615 55.593955993652344 76.19603633880615 55.593955993652344 C 76.25475883483887 55.60080885887146 76.31348133087158 55.60423529148102 76.37206077575684 55.60423529148102 C 76.73948764801025 55.60423529148102 77.0969009399414 55.46969389915466 77.37449169158936 55.22239172458649 C 77.69649982452393 54.93579339981079 77.88053512573242 54.52514863014221 77.88053512573242 54.09372961521149 C 77.88053512573242 54.09372961521149 77.88053512573242 12.57011067867279 77.88053512573242 12.57011067867279 C 77.88053512573242 12.57011067867279 79.98238563537598 12.57011067867279 79.98238563537598 12.57011067867279 C 79.98238563537598 12.57011067867279 79.98238563537598 58.97888803482056 79.98238563537598 58.97888803482056 C 79.98238563537598 58.97888803482056 79.98281478881836 58.97888803482056 79.98281478881836 58.97888803482056 Z M 46.98270320892334 13.678190231323242 C 49.68629837036133 12.942681312561035 52.46878623962402 12.735849380493164 55.250701904296875 13.062726259231567 C 55.250701904296875 13.062726259231567 70.9562873840332 14.909142136573792 70.9562873840332 14.909142136573792 C 71.01622581481934 14.916186690330505 71.07559204101562 14.919613122940063 71.13431453704834 14.919613122940063 C 71.88876628875732 14.919613122940063 72.54043579101562 14.35389232635498 72.63055801391602 13.58514940738678 C 72.7274751663208 12.75659966468811 72.13552951812744 12.006186962127686 71.30826473236084 11.908905029296875 C 71.30826473236084 11.908905029296875 55.60246467590332 10.06248915195465 55.60246467590332 10.06248915195465 C 52.43459701538086 9.690086245536804 49.26858901977539 9.92593502998352 46.19184494018555 10.763158679008484 C 45.38768291473389 10.98187530040741 44.91318225860596 11.811838746070862 45.13162136077881 12.61683475971222 C 45.35006046295166 13.421830773353577 46.179542541503906 13.89671516418457 46.98270320892334 13.678190231323242 Z M 12.809500694274902 14.919613122940063 C 12.868294715881348 14.919613122940063 12.927803993225098 14.916186690330505 12.987527847290039 14.909142136573792 C 12.987527847290039 14.909142136573792 28.691682815551758 13.062917947769165 28.691682815551758 13.062917947769165 C 31.469950675964355 12.738868474960327 34.28483963012695 12.950540542602539 36.960182189941406 13.680202960968018 C 37.76370048522949 13.89913523197174 38.59318256378174 13.42484986782074 38.81197929382324 12.619638204574585 C 39.03106212615967 11.814642190933228 38.55677604675293 10.984487056732178 37.75282859802246 10.765363097190857 C 34.70684051513672 9.934584975242615 31.505212783813477 9.693320989608765 28.34092140197754 10.06248915195465 C 28.34092140197754 10.06248915195465 12.635335922241211 11.908905029296875 12.635335922241211 11.908905029296875 C 11.80807113647461 12.006186962127686 11.215982437133789 12.75659966468811 11.313114166259766 13.58514940738678 C 11.403379440307617 14.35389232635498 12.055048942565918 14.919613122940063 12.809500694274902 14.919613122940063 Z M 46.98270320892334 20.60653281211853 C 49.68629837036133 19.871023893356323 52.46842861175537 19.664191961288452 55.250701904296875 19.991044878959656 C 55.250701904296875 19.991044878959656 70.9562873840332 21.83748471736908 70.9562873840332 21.83748471736908 C 71.01622581481934 21.844529271125793 71.07559204101562 21.84795570373535 71.13431453704834 21.84795570373535 C 71.88876628875732 21.84795570373535 72.54043579101562 21.28221094608307 72.63055801391602 20.513491988182068 C 72.7274751663208 19.6849182844162 72.13552951812744 18.934505581855774 71.30826473236084 18.837223649024963 C 71.30826473236084 18.837223649024963 55.60246467590332 16.99080777168274 55.60246467590332 16.99080777168274 C 52.43502616882324 16.61862051486969 49.26880359649658 16.85425364971161 46.19184494018555 17.691477298736572 C 45.38768291473389 17.910193920135498 44.91318225860596 18.74015736579895 45.13162136077881 19.545153379440308 C 45.35006046295166 20.349933743476868 46.179542541503906 20.825249433517456 46.98270320892334 20.60653281211853 Z M 12.809500694274902 21.847740054130554 C 12.868294715881348 21.847740054130554 12.927803993225098 21.844313621520996 12.987527847290039 21.837269067764282 C 12.987527847290039 21.837269067764282 28.691682815551758 19.991044878959656 28.691682815551758 19.991044878959656 C 31.468162536621094 19.667211055755615 34.28462505340576 19.87866747379303 36.960182189941406 20.60832989215851 C 37.76370048522949 20.82726216316223 38.59318256378174 20.35295283794403 38.81197929382324 19.547765135765076 C 39.03106212615967 18.74276912212372 38.55677604675293 17.91261398792267 37.75282859802246 17.693490028381348 C 34.706411361694336 16.862711906433105 31.503782272338867 16.621447920799255 28.34092140197754 16.99061608314514 C 28.34092140197754 16.99061608314514 12.635335922241211 18.837031960487366 12.635335922241211 18.837031960487366 C 11.80807113647461 18.934313893318176 11.215982437133789 19.6847265958786 11.313114166259766 20.51327633857727 C 11.403379440307617 21.28201925754547 12.055048942565918 21.847740054130554 12.809500694274902 21.847740054130554 Z M 46.98270320892334 27.53465974330902 C 49.68629837036133 26.799150824546814 52.46842861175537 26.592294931411743 55.250701904296875 26.919171810150146 C 55.250701904296875 26.919171810150146 70.9562873840332 28.76561164855957 70.9562873840332 28.76561164855957 C 71.01622581481934 28.772656202316284 71.07559204101562 28.776082634925842 71.13431453704834 28.776082634925842 C 71.88876628875732 28.776082634925842 72.54043579101562 28.21033787727356 72.63055801391602 27.44159495830536 C 72.7274751663208 26.61304521560669 72.13552951812744 25.862632513046265 71.30826473236084 25.765350580215454 C 71.30826473236084 25.765350580215454 55.60246467590332 23.91893470287323 55.60246467590332 23.91893470287323 C 52.43502616882324 23.54674744606018 49.26880359649658 23.782596230506897 46.19184494018555 24.619604229927063 C 45.38768291473389 24.83832085132599 44.91318225860596 25.66828429698944 45.13162136077881 26.4732803106308 C 45.35006046295166 27.278276324272156 46.179542541503906 27.753376364707947 46.98270320892334 27.53465974330902 Z M 12.809500694274902 28.776082634925842 C 12.868294715881348 28.776082634925842 12.927803993225098 28.772656202316284 12.987527847290039 28.76561164855957 C 12.987527847290039 28.76561164855957 28.691682815551758 26.919387459754944 28.691682815551758 26.919387459754944 C 31.467947959899902 26.595529675483704 34.28462505340576 26.806986093521118 36.960182189941406 27.536672472953796 C 37.76370048522949 27.755796432495117 38.59318256378174 27.28129541873932 38.81197929382324 26.476107716560364 C 39.03106212615967 25.671111702919006 38.55677604675293 24.840932607650757 37.75282859802246 24.621808648109436 C 34.70662593841553 23.791054487228394 31.50399684906006 23.549766540527344 28.34092140197754 23.918743014335632 C 28.34092140197754 23.918743014335632 12.635335922241211 25.765158891677856 12.635335922241211 25.765158891677856 C 11.80807113647461 25.862440824508667 11.215982437133789 26.612853527069092 11.313114166259766 27.44140326976776 C 11.403379440307617 28.21033787727356 12.055048942565918 28.776082634925842 12.809500694274902 28.776082634925842 Z M 46.98270320892334 34.46278667449951 C 49.685940742492676 33.727277755737305 52.46799945831299 33.520230174064636 55.250701904296875 33.84729874134064 C 55.250701904296875 33.84729874134064 70.9562873840332 35.69373857975006 70.9562873840332 35.69373857975006 C 71.01622581481934 35.700783133506775 71.07559204101562 35.70420956611633 71.13431453704834 35.70420956611633 C 71.88876628875732 35.70420956611633 72.54043579101562 35.13846480846405 72.63055801391602 34.36972188949585 C 72.7274751663208 33.54117214679718 72.13552951812744 32.790759444236755 71.30826473236084 32.693477511405945 C 71.30826473236084 32.693477511405945 55.60246467590332 30.84706163406372 55.60246467590332 30.84706163406372 C 52.43502616882324 30.47506606578827 49.26894664764404 30.71050751209259 46.19184494018555 31.547731161117554 C 45.38768291473389 31.76644778251648 44.91318225860596 32.59641122817993 45.13162136077881 33.40140724182129 C 45.35006046295166 34.20640325546265 46.179542541503906 34.681694984436035 46.98270320892334 34.46278667449951 Z M 12.809500694274902 35.70420956611633 C 12.868294715881348 35.70420956611633 12.927803993225098 35.700783133506775 12.987527847290039 35.69373857975006 C 12.987527847290039 35.69373857975006 28.691682815551758 33.847514390945435 28.691682815551758 33.847514390945435 C 31.46737575531006 33.5234409570694 34.28426742553711 33.73492133617401 36.960182189941406 34.46479940414429 C 37.76370048522949 34.68370771408081 38.59318256378174 34.20942234992981 38.81197929382324 33.404234647750854 C 39.03106212615967 32.5992386341095 38.55677604675293 31.769059538841248 37.75282859802246 31.549935579299927 C 34.70662593841553 30.719181418418884 31.503138542175293 30.477893471717834 28.34092140197754 30.84706163406372 C 28.34092140197754 30.84706163406372 12.635335922241211 32.693477511405945 12.635335922241211 32.693477511405945 C 11.80807113647461 32.790759444236755 11.215982437133789 33.54117214679718 11.313114166259766 34.36972188949585 C 11.403379440307617 35.13846480846405 12.055048942565918 35.70420956611633 12.809500694274902 35.70420956611633 Z M 71.30847930908203 39.621604442596436 C 71.30847930908203 39.621604442596436 55.60267925262451 37.77518856525421 55.60267925262451 37.77518856525421 C 52.43459701538086 37.40300130844116 49.26858901977539 37.63885009288788 46.19198799133301 38.475858092308044 C 45.38789749145508 38.69457471370697 44.91339683532715 39.52453815937042 45.1318359375 40.32953417301178 C 45.35027503967285 41.134721875190735 46.1797571182251 41.61001360416412 46.9828462600708 41.3911052942276 C 49.68651294708252 40.65578806400299 52.469000816345215 40.44895613193512 55.250916481018066 40.775641322135925 C 55.250916481018066 40.775641322135925 70.9565019607544 42.62205719947815 70.9565019607544 42.62205719947815 C 71.01644039154053 42.62910175323486 71.07573509216309 42.63252818584442 71.13452911376953 42.63252818584442 C 71.88898086547852 42.63252818584442 72.54065036773682 42.06680738925934 72.6307725906372 41.29806447029114 C 72.72768974304199 40.46951472759247 72.13574409484863 39.718886375427246 71.30847930908203 39.621604442596436 Z M 12.809500694274902 42.63252818584442 C 12.868294715881348 42.63252818584442 12.927803993225098 42.62910175323486 12.987527847290039 42.62205719947815 C 12.987527847290039 42.62205719947815 28.691682815551758 40.77583301067352 28.691682815551758 40.77583301067352 C 31.468162536621094 40.45197522640228 34.28462505340576 40.6634556055069 36.960182189941406 41.393118023872375 C 37.76370048522949 41.612241983413696 38.59318256378174 41.1377409696579 38.81197929382324 40.33255326747894 C 39.03106212615967 39.527557253837585 38.55677604675293 38.697402119636536 37.75282859802246 38.478278160095215 C 34.706411361694336 37.64750003814697 31.503782272338867 37.40621209144592 28.34092140197754 37.77538025379181 C 28.34092140197754 37.77538025379181 12.635335922241211 39.62182009220123 12.635335922241211 39.62182009220123 C 11.80807113647461 39.719078063964844 11.215982437133789 40.46951472759247 11.313114166259766 41.29806447029114 C 11.403379440307617 42.06680738925934 12.055048942565918 42.63252818584442 12.809500694274902 42.63252818584442 Z"/></g></svg>